<?xml version="1.0" encoding="utf-8"?>
<!-- Generator: Adobe Illustrator 25.2.3, SVG Export Plug-In . SVG Version: 6.00 Build 0)  -->
<svg version="1.1" id="레이어_1" xmlns="http://www.w3.org/2000/svg" xmlns:xlink="http://www.w3.org/1999/xlink" x="0px"
	 y="0px" viewBox="0 0 442 490" style="enable-background:new 0 0 442 490;" xml:space="preserve">
<style type="text/css">
	.st0{display:none;fill:#808080;}
	.st1{font-family:'TTWoorisidaeB';}
	.st2{font-size:47.0497px;}
	.st3{fill:none;stroke:#FEF001;stroke-width:20;stroke-linecap:round;stroke-linejoin:round;stroke-miterlimit:10;}
	.st4{fill:none;stroke:#FEF001;stroke-width:20;stroke-linecap:round;stroke-miterlimit:10;}
	.st5{fill:none;stroke:#FEF001;stroke-width:20;stroke-miterlimit:10;}
	.st6{fill:#808080;}
</style>
<text transform="matrix(1 0 0 1 151.2617 345.4297)" class="st0 st1 st2">나의베프</text>
<g>
	<g>
		<path class="st3" d="M146.36,226.27c0,0,0.51,60.68,58,57.83c57-2.83,52-57.83,52-57.83s4-55-51-55c-47,0-56,0.06-56,0.06
			s-8,3.94-5-38.06c0,0,2-12-22-11"/>
		<path class="st4" d="M328.36,172.27c0,0-71-12-72,54"/>
		<path class="st4" d="M221.98,226.27"/>
		<line class="st4" x1="307.84" y1="226.27" x2="256.82" y2="226.27"/>
		<ellipse class="st5" cx="202.18" cy="226.23" rx="25.13" ry="25.27"/>
	</g>
</g>
<path class="st6" d="M162.05,199.77"/>
</svg>
